<svg xmlns="http://www.w3.org/2000/svg" version="1.1" xmlns:xlink="http://www.w3.org/1999/xlink" xmlns:svgjs="http://svgjs.dev/svgjs" viewBox="0 0 5.384891319942849 1.5856529982052163"><g transform="matrix(1,0,0,1,1.5402173977252211,0.2603264991026082)"><g><path d=" M 1.0785 0.5399999999999999 Q 1.0785 0.6524999999999999 1.041 0.75 Q 1.0035 0.8474999999999999 0.93525 0.92175 Q 0.867 0.996 0.77325 1.038 Q 0.6795 1.0799999999999998 0.5685 1.0799999999999998 Q 0.4575 1.0799999999999998 0.3645 1.038 Q 0.2715 0.996 0.20325000000000001 0.92175 Q 0.135 0.8474999999999999 0.0975 0.75 Q 0.06 0.6524999999999999 0.06 0.5399999999999999 Q 0.06 0.4274999999999999 0.0975 0.32999999999999996 Q 0.135 0.23249999999999993 0.20325000000000001 0.1582499999999999 Q 0.2715 0.08399999999999996 0.3645 0.041999999999999815 Q 0.4575 0 0.5685 0 Q 0.6795 0 0.77325 0.041999999999999815 Q 0.867 0.08399999999999996 0.93525 0.1582499999999999 Q 1.0035 0.23249999999999993 1.041 0.32999999999999996 Q 1.0785 0.4274999999999999 1.0785 0.5399999999999999 Z M 0.8835000000000001 0.5399999999999999 Q 0.8835000000000001 0.4394999999999999 0.843 0.3577499999999999 Q 0.8025 0.2759999999999999 0.732 0.22799999999999998 Q 0.6615 0.17999999999999994 0.5685 0.17999999999999994 Q 0.47550000000000003 0.17999999999999994 0.405 0.22799999999999998 Q 0.3345 0.2759999999999999 0.29475 0.357 Q 0.255 0.43799999999999994 0.255 0.5399999999999999 Q 0.255 0.6405 0.29475 0.72225 Q 0.3345 0.8039999999999999 0.405 0.852 Q 0.47550000000000003 0.8999999999999999 0.5685 0.8999999999999999 Q 0.6615 0.8999999999999999 0.732 0.852 Q 0.8025 0.8039999999999999 0.843 0.72225 Q 0.8835000000000001 0.6405 0.8835000000000001 0.5399999999999999 Z M 1.8464582519531252 0.26249999999999996 Q 1.885458251953125 0.26249999999999996 1.9109582519531252 0.28874999999999995 Q 1.936458251953125 0.31499999999999995 1.936458251953125 0.354 L 1.936458251953125 0.7349999999999999 Q 1.936458251953125 0.8939999999999999 1.8479582519531252 0.987 Q 1.759458251953125 1.0799999999999998 1.5929582519531251 1.0799999999999998 Q 1.4264582519531253 1.0799999999999998 1.338708251953125 0.987 Q 1.250958251953125 0.8939999999999999 1.250958251953125 0.7349999999999999 L 1.250958251953125 0.354 Q 1.250958251953125 0.31499999999999995 1.2764582519531251 0.28874999999999995 Q 1.3019582519531252 0.26249999999999996 1.3409582519531251 0.26249999999999996 Q 1.379958251953125 0.26249999999999996 1.4054582519531251 0.28874999999999995 Q 1.4309582519531252 0.31499999999999995 1.4309582519531252 0.354 L 1.4309582519531252 0.7349999999999999 Q 1.4309582519531252 0.8264999999999999 1.4714582519531252 0.8707499999999999 Q 1.5119582519531252 0.9149999999999999 1.5929582519531251 0.9149999999999999 Q 1.6754582519531251 0.9149999999999999 1.7159582519531251 0.8707499999999999 Q 1.756458251953125 0.8264999999999999 1.756458251953125 0.7349999999999999 L 1.756458251953125 0.354 Q 1.756458251953125 0.31499999999999995 1.7819582519531252 0.28874999999999995 Q 1.807458251953125 0.26249999999999996 1.8464582519531252 0.26249999999999996 Z M 2.2364208984375002 1.065 Q 2.1974208984375 1.065 2.1719208984375005 1.0387499999999998 Q 2.1464208984375004 1.0125 2.1464208984375004 0.9734999999999999 L 2.1464208984375004 0.354 Q 2.1464208984375004 0.31499999999999995 2.1719208984375005 0.28874999999999995 Q 2.1974208984375 0.26249999999999996 2.2364208984375002 0.26249999999999996 Q 2.2754208984375004 0.26249999999999996 2.3009208984375 0.28874999999999995 Q 2.3264208984375 0.31499999999999995 2.3264208984375 0.354 L 2.3264208984375 0.4949999999999999 L 2.3159208984375 0.39449999999999996 Q 2.3324208984375003 0.35849999999999993 2.3586708984375004 0.3307499999999999 Q 2.3849208984375 0.30299999999999994 2.4179208984375 0.2842499999999999 Q 2.4509208984375004 0.26549999999999996 2.4884208984375 0.25649999999999995 Q 2.5259208984375 0.24749999999999994 2.5634208984375 0.24749999999999994 Q 2.6084208984375 0.24749999999999994 2.6391708984375004 0.2729999999999999 Q 2.6699208984375002 0.2984999999999999 2.6699208984375002 0.33299999999999996 Q 2.6699208984375002 0.38249999999999995 2.6444208984375 0.4042499999999999 Q 2.6189208984375005 0.42599999999999993 2.5889208984375003 0.42599999999999993 Q 2.5604208984375 0.42599999999999993 2.5371708984375 0.4155 Q 2.5139208984375 0.4049999999999999 2.4839208984375003 0.4049999999999999 Q 2.4569208984375 0.4049999999999999 2.4291708984375004 0.41774999999999995 Q 2.4014208984375003 0.4304999999999999 2.3781708984375003 0.4574999999999999 Q 2.3549208984375003 0.48449999999999993 2.3406708984375 0.5242499999999999 Q 2.3264208984375 0.564 2.3264208984375 0.6179999999999999 L 2.3264208984375 0.9734999999999999 Q 2.3264208984375 1.0125 2.3009208984375 1.0387499999999998 Q 2.2754208984375004 1.065 2.2364208984375002 1.065 Z M 3.1648608398437506 1.0799999999999998 Q 3.0598608398437506 1.0799999999999998 2.9758608398437505 1.05375 Q 2.8918608398437504 1.0274999999999999 2.81536083984375 0.9614999999999999 Q 2.7958608398437503 0.945 2.7853608398437504 0.9239999999999999 Q 2.7748608398437504 0.9029999999999999 2.7748608398437504 0.8819999999999999 Q 2.7748608398437504 0.8474999999999999 2.7996108398437505 0.8212499999999999 Q 2.8243608398437505 0.7949999999999999 2.86186083984375 0.7949999999999999 Q 2.8903608398437504 0.7949999999999999 2.9128608398437503 0.813 Q 2.9698608398437503 0.8594999999999999 3.02611083984375 0.8835 Q 3.0823608398437505 0.9075 3.1648608398437506 0.9075 Q 3.2203608398437504 0.9075 3.2668608398437504 0.89025 Q 3.3133608398437504 0.873 3.3418608398437506 0.84375 Q 3.3703608398437503 0.8145 3.3703608398437503 0.7769999999999999 Q 3.3703608398437503 0.732 3.3433608398437507 0.7004999999999999 Q 3.3163608398437505 0.6689999999999999 3.26086083984375 0.6472499999999999 Q 3.2053608398437503 0.6255 3.11986083984375 0.6134999999999999 Q 3.03886083984375 0.6014999999999999 2.9773608398437506 0.5767499999999999 Q 2.9158608398437504 0.5519999999999999 2.87461083984375 0.5137499999999999 Q 2.8333608398437504 0.4754999999999999 2.8123608398437505 0.42374999999999996 Q 2.79136083984375 0.3719999999999999 2.79136083984375 0.3074999999999999 Q 2.79136083984375 0.20999999999999996 2.8416108398437503 0.1409999999999999 Q 2.8918608398437504 0.07199999999999995 2.9773608398437506 0.03600000000000003 Q 3.0628608398437502 0 3.16636083984375 0 Q 3.2638608398437503 0 3.3471108398437504 0.029249999999999998 Q 3.4303608398437504 0.058499999999999996 3.4828608398437506 0.10349999999999993 Q 3.5263608398437505 0.1379999999999999 3.5263608398437505 0.18299999999999994 Q 3.5263608398437505 0.21599999999999997 3.5008608398437504 0.24299999999999988 Q 3.4753608398437503 0.2699999999999999 3.4408608398437504 0.2699999999999999 Q 3.4183608398437504 0.2699999999999999 3.40036083984375 0.25649999999999995 Q 3.37636083984375 0.23549999999999993 3.3358608398437504 0.2167499999999999 Q 3.2953608398437506 0.19799999999999995 3.2503608398437502 0.18524999999999991 Q 3.2053608398437503 0.17249999999999988 3.16636083984375 0.17249999999999988 Q 3.1018608398437504 0.17249999999999988 3.0576108398437505 0.18899999999999995 Q 3.0133608398437506 0.2054999999999999 2.9908608398437506 0.23399999999999987 Q 2.96836083984375 0.26249999999999996 2.96836083984375 0.29999999999999993 Q 2.96836083984375 0.345 2.9946108398437503 0.37424999999999997 Q 3.0208608398437504 0.40349999999999997 3.0703608398437505 0.42074999999999996 Q 3.11986083984375 0.43799999999999994 3.1888608398437506 0.4514999999999999 Q 3.2788608398437504 0.46799999999999997 3.3471108398437504 0.49049999999999994 Q 3.4153608398437503 0.5129999999999999 3.4603608398437506 0.5482499999999999 Q 3.5053608398437506 0.5834999999999999 3.5278608398437505 0.6367499999999999 Q 3.5503608398437505 0.69 3.5503608398437505 0.7665 Q 3.5503608398437505 0.8639999999999999 3.4963608398437502 0.9344999999999999 Q 3.4423608398437504 1.005 3.35461083984375 1.0425 Q 3.2668608398437504 1.0799999999999998 3.1648608398437506 1.0799999999999998 Z" fill="#574848" fill-rule="nonzero"></path></g><g></g><g clip-path="url(&quot;#SvgjsClipPath1002&quot;)"><g clip-path="url(&quot;#SvgjsClipPath1000&quot;)"><path d=" M -0.996990193368106 0.13931856737002404 C -1.0571153505409385 0.1620901209571592 -1.1094699438960665 0.20158912835682805 -1.1478731179246804 0.2531524331612879 L -1.056992925430475 0.2531524331612879 C -1.0438889613325018 0.21195474825939503 -1.023572594916348 0.1734116611616503 -0.996990193368106 0.13931856737002404 Z M -1.1751293881671583 0.2961978713799438 C -1.1973710499184087 0.33805019930316793 -1.210426716360921 0.38416650354443993 -1.2134244478578404 0.4314668468404717 L -1.087227916635166 0.4314668468404717 C -1.0860266205989004 0.3858802785794572 -1.0800627213676166 0.3405442043355146 -1.0694334659197209 0.2961978713799451 Z M -1.2134244478578404 0.47449281629466833 C -1.2104219777278158 0.5217923480594012 -1.1973665891026621 0.5679076709712336 -1.175129388167157 0.6097617917551968 L -1.0694334659197209 0.6097617917551968 C -1.0800614611071182 0.5654152255410393 -1.0860253428884064 0.5200792839476187 -1.087227916635166 0.47449281629466833 Z M -1.1477563053379274 0.6528072299738521 C -1.1093714761826876 0.7043633950797936 -1.0570274119591108 0.743851140999618 -0.9969123183102702 0.766602158236198 C -1.0234986766780345 0.7325259891425915 -1.0438156586543639 0.6939949185223289 -1.0569150503726419 0.6528072299738521 Z M -0.7610092993616221 0.766602158236198 C -0.700900464735484 0.743859122153052 -0.6485668869410398 0.7043690934661776 -0.6102042498628835 0.6528072299738514 L -0.7010455048281715 0.6528072299738514 C -0.7141249833603128 0.6939955552119602 -0.7344294110454989 0.7325278213872557 -0.7610092993616246 0.766602158236198 Z M -0.5828895733270285 0.6097617917551956 C -0.5606350630257487 0.5679146292941986 -0.5475785956165078 0.5217954958120321 -0.5445945136363489 0.47449281629466766 L -0.6708105136234781 0.47449281629466766 C -0.6719717647872966 0.5200801496283303 -0.6779229843301857 0.5654190458827044 -0.6885660268100071 0.6097617917551968 Z M -0.5445945136363464 0.43146684684047104 C -0.5475732439946748 0.38416325190818423 -0.5606300257341543 0.3380430081227737 -0.5828895733270285 0.2961978713799444 L -0.6885660268100071 0.2961978713799444 C -0.6779217088922874 0.3405403811467049 -0.671970471622028 0.38587941245565066 -0.6708105136234781 0.4314668468404717 Z M -0.6101653123339662 0.2531524331612879 C -0.6485505627916813 0.20159217708692187 -0.7008938995355803 0.16209822424685655 -0.7610092993616246 0.13933803613448267 C -0.734429127595351 0.1734193742291713 -0.714124785624772 0.21195807006034037 -0.7010455048281715 0.2531524331612879 Z M -0.8790873558049292 0.8311021748885773 C -1.0878073885518214 0.8308340278511325 -1.2569415520884915 0.6616998643144626 -1.2572096991259363 0.452979831567571 C -1.2569849354970766 0.24440893192237995 -1.0880861795667283 0.07531864132037812 -0.8795156686230039 0.07485748824656337 C -0.6706613469499526 0.0749538932969923 -0.501315314117151 0.24412571973864594 -0.5010039500128421 0.4529798315675703 C -0.5012396730705658 0.6616145451231171 -0.6702386904406413 0.8307267567446267 -0.8788731993958674 0.831102174888578 Z M -0.7336167477679313 0.2961978713799444 L -0.85757437107783 0.2961978713799444 L -0.85757437107783 0.4314668468404717 L -0.7140311707222656 0.4314668468404717 C -0.7153734069489737 0.3857772717901009 -0.7219447628943354 0.34039180349151715 -0.7336167477679286 0.2961978713799444 Z M -0.9006198092964859 0.2961978713799444 L -1.024616370135303 0.2961978713799444 C -1.0362202356920436 0.34040220475487615 -1.0427519128436116 0.38578429760397764 -1.0440851345942157 0.4314668468404724 L -0.900502996709734 0.4314668468404724 L -0.900502996709734 0.2961978713799444 Z M -1.0108519536628506 0.2531524331612879 L -0.900502996709734 0.2531524331612879 L -0.900502996709734 0.12086217866297494 C -0.9449501859694325 0.13314696903654902 -0.9844133715276485 0.18281178717123506 -1.0107351410760987 0.2531524331612879 Z M -0.8575743710778286 0.2531524331612879 L -0.7473422267114627 0.2531524331612879 C -0.7736445274954542 0.18283125593569433 -0.8131661193470474 0.13316643780100704 -0.8575743710778274 0.12086217866297494 L -0.8575743710778274 0.2531524331612879 Z M -0.7140311707222631 0.474492816294669 L -0.8575743710778274 0.474492816294669 L -0.8575743710778274 0.6097617917551962 L -0.7336167477679286 0.6097617917551962 C -0.7219489518234133 0.5655670062390588 -0.715377665904376 0.5201820215815284 -0.7140311707222631 0.47449281629466833 Z M -0.9006198092964846 0.474492816294669 L -1.044163009652049 0.474492816294669 C -1.0428254093023621 0.5201749876680354 -1.0362938033112852 0.5655565860940333 -1.0246942451931376 0.6097617917551904 L -0.900502996709734 0.6097617917551904 L -0.900502996709734 0.474492816294669 Z M -0.9006198092964846 0.7850974844721657 L -0.9006198092964846 0.6527098861515577 L -1.0108519536628493 0.6527098861515577 C -0.9845301841143991 0.7230505321416099 -0.9450669985561817 0.7726764127473792 -0.9006198092964846 0.7850974844721657 Z M -0.8575743710778274 0.6527098861515577 L -0.8575743710778274 0.7850974844721657 C -0.8131661193470474 0.7727737565696737 -0.7736445274954542 0.723108938434987 -0.7473422267114627 0.6527098861515577 Z M -0.9338529902278483 0.9287185598855658 C -0.9843762164301384 0.9486969722167525 -1.020396043199777 0.9941206977123616 -1.0283349041469534 1.0478673983741134 L -0.7296840573472281 1.0478673983741134 C -0.7376151058657895 0.994111228528995 -0.7736472074632237 0.9486813847349512 -0.8241854400307932 0.9287185598855658 C -0.842398597429934 0.9308060145818535 -0.8607160270159194 0.9318525391252686 -0.8790484182760094 0.9318530309634513 C -0.8973618603363858 0.9318691806191352 -0.9156608093362218 0.9308225977456099 -0.9338529902278483 0.9287185598855658 Z M -0.7066135714634171 1.0908933678283113 L -1.0513664525018498 1.0908933678283113 C -1.0570630809569384 1.0909192618618222 -1.0625352741835639 1.0886744139721518 -1.0665725641916968 1.0846553922445992 C -1.0706098541998295 1.0806363705170468 -1.0728794960793295 1.0751744142286732 -1.072879437228949 1.0694777269235074 C -1.0726842053172039 1.0099546817071696 -1.0453266290781844 0.9537770172918193 -0.9985866320537402 0.9169204886234681 C -1.1299253564582437 0.8831996992423683 -1.2407649077419705 0.7952895405112703 -1.30350642100923 0.675079496514848 C -1.3089993496149688 0.6645460439006601 -1.3049328039039638 0.651553996361433 -1.2944145080069192 0.6460320999421503 C -1.2893672051657317 0.6433536447208228 -1.2834588185314797 0.6428032886431091 -1.2780036544085343 0.644503457086252 C -1.2725484902855904 0.6462036255293956 -1.2679989657185105 0.6500133172026977 -1.2653671114342206 0.6550850754155457 C -1.1903028064213748 0.7989866088578937 -1.0413708428741355 0.8891324047556034 -0.8790678870404706 0.8889049365670892 C -0.6384274544299656 0.8886366819938188 -0.44341975794389876 0.6936202759188058 -0.44316225080540905 0.4529798315675703 C -0.4434197579439013 0.21233938721633155 -0.6384274544299682 0.017322981141319922 -0.8790678870404731 0.01705472656805143 C -0.8909144635390184 0.017054900892496692 -0.9005360733913585 0.007485487838632655 -0.9006003405320272 -0.004360914336753348 C -0.9006003402814217 -0.016252960480343838 -0.8909599322765348 -0.025893368078916793 -0.8790678865867068 -0.025893367828310608 C -0.614699121585304 -0.02556084834485105 -0.40046880083466874 0.18866947240578227 -0.4001362813512105 0.45303823786094755 C -0.4004137492274976 0.6714357327500176 -0.5481403379202204 0.8620935358047686 -0.7595491420271404 0.9169010198589901 C -0.7127504137737053 0.9537582912414192 -0.6853416979477234 1.0099665915489533 -0.6851200555007816 1.069536133216884 C -0.6851950293413832 1.0813932728771523 -0.6948340748843967 1.0909627224234637 -0.7066914465212543 1.090951774121688 Z" fill="#b9625d" transform="matrix(1,0,0,1,0,0)" fill-rule="nonzero"></path></g></g></g><defs><clipPath id="SvgjsClipPath1002"><path d=" M -1.3058816102732187 -0.025990711650605736 h 0.9058816102732187 v 1.1169814233012114 h -0.9058816102732187 Z"></path></clipPath><clipPath id="SvgjsClipPath1000"><path d=" M -1.3058816102732187 -0.025990711650605736 L -0.4 -0.025990711650605736 L -0.4 1.0909907116506057 L -1.3058816102732185 1.0909907116506057 Z"></path></clipPath></defs></svg>